<?xml version="1.0" encoding="utf-8"?>
<!-- Generator: Adobe Illustrator 23.0.1, SVG Export Plug-In . SVG Version: 6.00 Build 0)  -->
<!DOCTYPE svg PUBLIC "-//W3C//DTD SVG 1.1//EN" "http://www.w3.org/Graphics/SVG/1.1/DTD/svg11.dtd" [
	<!ENTITY ns_extend "http://ns.adobe.com/Extensibility/1.0/">
	<!ENTITY ns_ai "http://ns.adobe.com/AdobeIllustrator/10.0/">
	<!ENTITY ns_graphs "http://ns.adobe.com/Graphs/1.0/">
	<!ENTITY ns_vars "http://ns.adobe.com/Variables/1.0/">
	<!ENTITY ns_imrep "http://ns.adobe.com/ImageReplacement/1.0/">
	<!ENTITY ns_sfw "http://ns.adobe.com/SaveForWeb/1.0/">
	<!ENTITY ns_custom "http://ns.adobe.com/GenericCustomNamespace/1.0/">
	<!ENTITY ns_adobe_xpath "http://ns.adobe.com/XPath/1.0/">
]>
<svg version="1.1" id="Layer_1" width="568px" height="789px" xmlns:x="&ns_extend;" xmlns:i="&ns_ai;" xmlns:graph="&ns_graphs;"
	 xmlns="http://www.w3.org/2000/svg" xmlns:xlink="http://www.w3.org/1999/xlink" x="0px" y="0px" viewBox="0 0 704.4 941.9"
	 style="enable-background:new 0 0 704.4 941.9;" xml:space="preserve">
<style type="text/css">
	.st0{fill:url(#SVGID_1_);}
	.st1{fill:url(#SVGID_2_);}
	.st2{fill:url(#SVGID_3_);}
	.st3{opacity:0.5;fill:#FFFFFF;enable-background:new    ;}
	.st4{fill:#FFFFFF;}
	.st5{opacity:0.3;fill:#FFFFFF;enable-background:new    ;}
	.st6{opacity:0.7;}
	.st7{fill:url(#SVGID_4_);}
	.st8{fill:url(#SVGID_5_);}
	.st9{fill:url(#SVGID_6_);}
	.st10{fill:url(#SVGID_7_);}
	.st11{fill:url(#SVGID_8_);}
	.st12{fill:url(#SVGID_9_);}
	.st13{opacity:0.6;}
	.st14{fill:none;stroke:#FFFFFF;stroke-miterlimit:10;}
	.st15{fill:url(#SVGID_10_);}
	.st16{fill:url(#SVGID_11_);}
	.st17{fill:url(#SVGID_12_);}
	.st18{fill:#22A6E4;}
	.st19{fill:#8DDBF5;}
	.st20{fill:#C4EDF9;}
	.st21{fill:url(#SVGID_13_);}
	.st22{fill:url(#SVGID_14_);}
	.st23{fill:url(#SVGID_15_);}
	.st24{fill:url(#SVGID_16_);}
	.st25{fill:url(#SVGID_17_);}
	.st26{fill:#FFC88D;}
	.st27{fill:url(#SVGID_18_);}
	.st28{fill:url(#SVGID_19_);}
	.st29{fill:url(#SVGID_20_);}
	.st30{fill:url(#SVGID_21_);}
	.st31{fill:url(#SVGID_22_);}
	.st32{fill:url(#SVGID_23_);}
	.st33{fill:url(#SVGID_24_);}
	.st34{opacity:0.5;fill:#FFD4AE;enable-background:new    ;}
	.st35{opacity:0.55;fill:#FFE1C5;enable-background:new    ;}
	.st36{fill:#FFD4AE;}
	.st37{opacity:0.55;fill:#FFE2CC;enable-background:new    ;}
	.st38{opacity:0.75;fill:#FFC88D;enable-background:new    ;}
	.st39{opacity:0.55;fill:#FFD4AE;enable-background:new    ;}
	.st40{fill:url(#SVGID_25_);}
	.st41{opacity:0.3294;fill:#43107A;enable-background:new    ;}
	.st42{enable-background:new    ;}
	.st43{clip-path:url(#SVGID_27_);}
	.st44{fill:#00B4E8;}
	.st45{fill:#B3B3B3;}
	.st46{opacity:0.8;fill:#FFFFFF;enable-background:new    ;}
	.st47{opacity:0.6;fill:#FFFFFF;enable-background:new    ;}
	.st48{opacity:0.4;fill:#FFFFFF;enable-background:new    ;}
	.st49{opacity:0.2;fill:#FFFFFF;enable-background:new    ;}
	.st50{fill:url(#SVGID_28_);}
	.st51{fill:none;}
	.st52{fill:#532E82;}
	.st53{fill:url(#SVGID_29_);}
	.st54{fill:#FCC888;}
	.st55{fill:#FFE3C2;}
	.st56{fill:#AD84C7;}
	.st57{opacity:0.3;fill:url(#SVGID_30_);enable-background:new    ;}
	.st58{fill:#D3C1E7;}
	.st59{fill:#C7B4DF;}
	.st60{opacity:0.55;}
</style>
<metadata>
	<sfw  xmlns="&ns_sfw;">
		<slices></slices>
		<sliceSourceBounds  bottomLeftOrigin="true" height="793" width="585.7" x="332.5" y="99.1"></sliceSourceBounds>
	</sfw>
</metadata>
<g>
	<g>
		
			<linearGradient id="SVGID_1_" gradientUnits="userSpaceOnUse" x1="246.5346" y1="598.1858" x2="246.5346" y2="686.6858" gradientTransform="matrix(1 0 0 -1 0 1023.3858)">
			<stop  offset="6.916991e-03" style="stop-color:#FFFFFF;stop-opacity:0"/>
			<stop  offset="0.176" style="stop-color:#D9F5F9;stop-opacity:5.106452e-02"/>
			<stop  offset="0.5555" style="stop-color:#78DDEB;stop-opacity:0.1657"/>
			<stop  offset="1" style="stop-color:#00BFD9;stop-opacity:0.3"/>
		</linearGradient>
		<path class="st0" d="M363.6,425.2H129.4c-3.4,0-6.2-2.8-6.2-6.2v-49c0-18.3,15-33.3,33.3-33.3h180c18.3,0,33.3,15,33.3,33.3v49
			C369.8,422.4,367,425.2,363.6,425.2z"/>
		
			<linearGradient id="SVGID_2_" gradientUnits="userSpaceOnUse" x1="421.4846" y1="741.0858" x2="421.4846" y2="780.4858" gradientTransform="matrix(1 0 0 -1 0 1023.3858)">
			<stop  offset="6.916991e-03" style="stop-color:#FFFFFF;stop-opacity:0"/>
			<stop  offset="0.176" style="stop-color:#D9F5F9;stop-opacity:5.106452e-02"/>
			<stop  offset="0.5555" style="stop-color:#78DDEB;stop-opacity:0.1657"/>
			<stop  offset="1" style="stop-color:#00BFD9;stop-opacity:0.3"/>
		</linearGradient>
		<path class="st1" d="M459.1,282.3h-75.4c-1.8,0-3.2-1.4-3.2-3.2v-18.9c0-9.5,7.8-17.3,17.3-17.3h47.3c9.5,0,17.3,7.8,17.3,17.3
			v18.9C462.3,280.9,460.9,282.3,459.1,282.3z"/>
		
			<linearGradient id="SVGID_3_" gradientUnits="userSpaceOnUse" x1="417.8359" y1="548.5858" x2="417.8359" y2="768.6858" gradientTransform="matrix(1 0 0 -1 0 1023.3858)">
			<stop  offset="6.916991e-03" style="stop-color:#FFFFFF;stop-opacity:0"/>
			<stop  offset="0.176" style="stop-color:#D9F5F9;stop-opacity:5.106452e-02"/>
			<stop  offset="0.5555" style="stop-color:#78DDEB;stop-opacity:0.1657"/>
			<stop  offset="1" style="stop-color:#00BFD9;stop-opacity:0.3"/>
		</linearGradient>
		<path class="st2" d="M497.3,474.8H338.4c-3.7,0-6.8-3-6.8-6.8V291.1c0-20,16.4-36.4,36.4-36.4h99.6c20,0,36.4,16.4,36.4,36.4V468
			C504.1,471.7,501,474.8,497.3,474.8z"/>
		<g>
			<g>
				<ellipse class="st3" cx="365.6" cy="286.8" rx="5.3" ry="5.3"/>
				<ellipse class="st4" cx="365.4" cy="305.9" rx="5.3" ry="5.3"/>
				<ellipse class="st5" cx="365.3" cy="325" rx="5.3" ry="5.3"/>
			</g>
			<g>
				<ellipse class="st4" cx="384.5" cy="287" rx="5.3" ry="5.3"/>
				<ellipse class="st4" cx="384.3" cy="306" rx="5.3" ry="5.3"/>
				<ellipse class="st4" cx="384.2" cy="325" rx="5.3" ry="5.3"/>
			</g>
			<g>
				<ellipse class="st5" cx="403.4" cy="287.1" rx="5.3" ry="5.3"/>
				<ellipse class="st4" cx="403.1" cy="325.2" rx="5.3" ry="5.3"/>
			</g>
			<g>
				<ellipse class="st4" cx="422.3" cy="287.2" rx="5.3" ry="5.3"/>
			</g>
		</g>
		<g class="st6">
			
				<linearGradient id="SVGID_4_" gradientUnits="userSpaceOnUse" x1="243.6313" y1="772.7858" x2="243.6313" y2="837.0499" gradientTransform="matrix(1 0 0 -1 0 1023.3858)">
				<stop  offset="6.916991e-03" style="stop-color:#FFFFFF;stop-opacity:0"/>
				<stop  offset="9.217694e-02" style="stop-color:#D9F5F9;stop-opacity:5.106452e-02"/>
				<stop  offset="0.2836" style="stop-color:#78DDEB;stop-opacity:0.1657"/>
				<stop  offset="0.5078" style="stop-color:#00BFD9;stop-opacity:0.3"/>
				<stop  offset="1" style="stop-color:#00BFD9;stop-opacity:0.3"/>
			</linearGradient>
			<path class="st7" d="M139.8,250.6h207.6c5.5,0,7.4-8.5,2.6-11.6l-95.7-50.5c-5.3-2.8-11.4-2.9-16.8-0.2l-100.2,50.6
				C132.4,242,134.2,250.6,139.8,250.6z"/>
			
				<linearGradient id="SVGID_5_" gradientUnits="userSpaceOnUse" x1="174.2846" y1="687.5858" x2="174.2846" y2="772.7858" gradientTransform="matrix(1 0 0 -1 0 1023.3858)">
				<stop  offset="6.916991e-03" style="stop-color:#FFFFFF;stop-opacity:0"/>
				<stop  offset="0.176" style="stop-color:#D9F5F9;stop-opacity:5.106452e-02"/>
				<stop  offset="0.5555" style="stop-color:#78DDEB;stop-opacity:0.1657"/>
				<stop  offset="1" style="stop-color:#00BFD9;stop-opacity:0.3"/>
			</linearGradient>
			<path class="st8" d="M156.8,254c0,3.8,3.1,6.9,6.9,6.9h0.6v0.7v63.1v0.7h-0.6c-3.8,0-6.9,3.1-6.9,6.9v3.5h34.9v-3.5
				c0-3.8-3.1-6.9-6.9-6.9h-1.3v-0.7v-63.1V261h1.3c3.8,0,6.9-3.1,6.9-6.9v-3.5h-34.9V254z"/>
			
				<linearGradient id="SVGID_6_" gradientUnits="userSpaceOnUse" x1="216.6846" y1="687.5858" x2="216.6846" y2="772.7858" gradientTransform="matrix(1 0 0 -1 0 1023.3858)">
				<stop  offset="6.916991e-03" style="stop-color:#FFFFFF;stop-opacity:0"/>
				<stop  offset="0.176" style="stop-color:#D9F5F9;stop-opacity:5.106452e-02"/>
				<stop  offset="0.5555" style="stop-color:#78DDEB;stop-opacity:0.1657"/>
				<stop  offset="1" style="stop-color:#00BFD9;stop-opacity:0.3"/>
			</linearGradient>
			<path class="st9" d="M199.2,254c0,3.8,3.1,6.9,6.9,6.9h1v0.7v63.1v0.7h-1c-3.8,0-6.9,3.1-6.9,6.9v3.5h34.9v-3.5
				c0-3.8-3.1-6.9-6.9-6.9h-1v-0.7v-63.1V261h1c3.8,0,6.9-3.1,6.9-6.9v-3.5h-34.9V254z"/>
			
				<linearGradient id="SVGID_7_" gradientUnits="userSpaceOnUse" x1="263.9846" y1="687.5858" x2="263.9846" y2="772.7858" gradientTransform="matrix(1 0 0 -1 0 1023.3858)">
				<stop  offset="6.916991e-03" style="stop-color:#FFFFFF;stop-opacity:0"/>
				<stop  offset="0.176" style="stop-color:#D9F5F9;stop-opacity:5.106452e-02"/>
				<stop  offset="0.5555" style="stop-color:#78DDEB;stop-opacity:0.1657"/>
				<stop  offset="1" style="stop-color:#00BFD9;stop-opacity:0.3"/>
			</linearGradient>
			<path class="st10" d="M246.5,254c0,3.8,3.1,6.9,6.9,6.9h1v0.7v63.1v0.7h-1c-3.8,0-6.9,3.1-6.9,6.9v3.5h34.9v-3.5
				c0-3.8-3.1-6.9-6.9-6.9h-1v-0.7v-63.1V261h1c3.8,0,6.9-3.1,6.9-6.9v-3.5h-34.9V254z"/>
			
				<linearGradient id="SVGID_8_" gradientUnits="userSpaceOnUse" x1="309.5846" y1="687.4858" x2="309.5846" y2="772.7858" gradientTransform="matrix(1 0 0 -1 0 1023.3858)">
				<stop  offset="6.916991e-03" style="stop-color:#FFFFFF;stop-opacity:0"/>
				<stop  offset="0.176" style="stop-color:#D9F5F9;stop-opacity:5.106452e-02"/>
				<stop  offset="0.5555" style="stop-color:#78DDEB;stop-opacity:0.1657"/>
				<stop  offset="1" style="stop-color:#00BFD9;stop-opacity:0.3"/>
			</linearGradient>
			<path class="st11" d="M319.1,261.7V261h1c3.8,0,6.9-3.1,6.9-6.9v-3.5h-34.9v3.5c0,3.8,3.1,6.9,6.9,6.9h1v0.7v63.1v0.7h-1
				c-3.8,0-6.9,3.1-6.9,6.9v3.5H327v-3.5c0-3.8-3.1-6.9-6.9-6.9h-1v-0.7V261.7z"/>
			
				<linearGradient id="SVGID_9_" gradientUnits="userSpaceOnUse" x1="299.3061" y1="772.8858" x2="299.3061" y2="837.0858" gradientTransform="matrix(1 0 0 -1 0 1023.3858)">
				<stop  offset="6.916991e-03" style="stop-color:#FFFFFF;stop-opacity:0"/>
				<stop  offset="9.217694e-02" style="stop-color:#D9F5F9;stop-opacity:5.106452e-02"/>
				<stop  offset="0.2836" style="stop-color:#78DDEB;stop-opacity:0.1657"/>
				<stop  offset="0.5078" style="stop-color:#00BFD9;stop-opacity:0.3"/>
				<stop  offset="1" style="stop-color:#00BFD9;stop-opacity:0.3"/>
			</linearGradient>
			<path class="st12" d="M245.8,186.3c2.9,0,5.8,0.7,8.5,2.1l95.7,50.5c4.8,3.1,2.9,11.6-2.6,11.6H245.8V186.3z"/>
		</g>
		<g>
			<g class="st13">
				
					<ellipse transform="matrix(0.9523 -0.3051 0.3051 0.9523 -101.3262 127.4278)" class="st14" cx="357" cy="387.9" rx="5.7" ry="5.6"/>
				
					<ellipse transform="matrix(0.9523 -0.3051 0.3051 0.9523 -101.3262 127.4278)" class="st14" cx="357" cy="387.9" rx="16.6" ry="16"/>
				
					<ellipse transform="matrix(0.9523 -0.3051 0.3051 0.9523 -101.3262 127.4278)" class="st14" cx="357" cy="387.9" rx="28.5" ry="27.6"/>
			</g>
		</g>
	</g>
	
		<linearGradient id="SVGID_10_" gradientUnits="userSpaceOnUse" x1="-7702.2046" y1="748.4736" x2="-7625.5054" y2="825.1728" gradientTransform="matrix(-1 0 0 -1 -7184.6294 1023.3858)">
		<stop  offset="6.916991e-03" style="stop-color:#FFFFFF;stop-opacity:0"/>
		<stop  offset="0.1006" style="stop-color:#D9F5F9;stop-opacity:5.106452e-02"/>
		<stop  offset="0.3109" style="stop-color:#78DDEB;stop-opacity:0.1657"/>
		<stop  offset="0.5572" style="stop-color:#00BFD9;stop-opacity:0.3"/>
	</linearGradient>
	<path class="st15" d="M405.6,234.7C405.7,234.7,405.7,234.7,405.6,234.7c0.9,0,1.7-0.3,2.2-1c1.8-2.7,4.9-4.5,8.4-4.5
		c1.6,0,3.1,0.4,4.4,1c1.2,0.6,2.7,0.1,3.3-1.2c4-8.9,12.9-15.2,23.4-15.2c8.7,0,16.4,4.4,21,11c0.8,1.1,2.2,1.3,3.3,0.6
		c2.7-1.8,5.9-2.9,9.4-2.9c5.3,0,9.9,2.4,13,6.2c1.1,1.3,3,1.1,3.9-0.3c3.7-6,10.4-10.1,18-10.1c7.3,0,13.8,3.7,17.5,9.4
		c0.7,1,2.1,1.3,3.2,0.8c1.7-0.9,3.6-1.4,5.7-1.4c5.8,0,10.6,4,12,9.4c0.4,1.5-0.8,3-2.3,3H405.5c-3,0-3.3-4.5-0.4-4.8
		C405.3,234.7,405.5,234.7,405.6,234.7z"/>
	
		<linearGradient id="SVGID_11_" gradientUnits="userSpaceOnUse" x1="-7608.4775" y1="794.5053" x2="-7523.9326" y2="879.05" gradientTransform="matrix(-1 0 0 -1 -7184.6294 1023.3858)">
		<stop  offset="6.916991e-03" style="stop-color:#FFFFFF;stop-opacity:0"/>
		<stop  offset="0.1006" style="stop-color:#D9F5F9;stop-opacity:5.106452e-02"/>
		<stop  offset="0.3109" style="stop-color:#78DDEB;stop-opacity:0.1657"/>
		<stop  offset="0.5572" style="stop-color:#00BFD9;stop-opacity:0.3"/>
	</linearGradient>
	<path class="st16" d="M303.8,193.3c-4,0-6.7-4.3-4.7-7.8c3.2-5.7,9.2-9.5,16.2-9.5c2.6,0,5.1,0.5,7.3,1.5c2.7,1.2,5.8,0.1,7.1-2.5
		c7.4-15.8,23.4-26.8,42-26.8c15.5,0,29.3,7.6,37.7,19.3c1.7,2.3,4.8,2.8,7.2,1.2c4.7-3,10.3-4.8,16.3-4.8
		c14.1,0,25.9,9.6,29.5,22.6c0.9,3.4-1.6,6.7-5.1,6.7H303.8V193.3z"/>
	
		<linearGradient id="SVGID_12_" gradientUnits="userSpaceOnUse" x1="-508.9167" y1="822.1168" x2="-436.2871" y2="894.7464" gradientTransform="matrix(1 0 0 -1 689.2466 1023.3858)">
		<stop  offset="0.4428" style="stop-color:#00BFD9;stop-opacity:0.3"/>
		<stop  offset="0.6619" style="stop-color:#6EDBEA;stop-opacity:0.149"/>
		<stop  offset="0.8059" style="stop-color:#B2ECF4;stop-opacity:4.974093e-02"/>
		<stop  offset="0.897" style="stop-color:#D9F6FA;stop-opacity:2.554419e-02"/>
		<stop  offset="0.9931" style="stop-color:#FFFFFF;stop-opacity:0"/>
	</linearGradient>
	<path class="st17" d="M283.4,170.7c3.4,0,5.7-3.7,4-6.7c-2.7-4.9-7.9-8.2-13.9-8.2c-2.2,0-4.3,0.5-6.3,1.3c-2.3,1-5,0.1-6.1-2.2
		c-6.3-13.6-20.1-23-36.1-23c-13.3,0-25.1,6.5-32.3,16.6c-1.4,2-4.2,2.4-6.2,1.1c-4.1-2.6-8.9-4.1-14-4.1
		c-12.1,0-22.3,8.2-25.3,19.4c-0.8,2.9,1.4,5.8,4.4,5.8L283.4,170.7L283.4,170.7z"/>
	<g>
		<g class="st6">
			<path class="st18" d="M87.4,265.4h53.8c2.2,0,4-1.8,4-4v-31.9c0-2.2-1.8-4-4-4H87.4c-2.2,0-4,1.8-4,4v31.9
				C83.4,263.6,85.2,265.4,87.4,265.4z"/>
			<path class="st19" d="M97.8,232.4c0.8-0.5,7.6,2.1,10.4,3.7v-0.2c0-0.5,0.4-0.9,1-0.9h4.6v14.8l-8.3,9.2l-2-4.1l-4.6-0.6
				l10.3-10.4v-0.1c-0.5,0-0.8-0.4-0.9-0.9c-2.4,1.5-8,3.2-10,3.2c-1.1,0-1.7-2.4-2-5.1C96,238.7,96.1,233.4,97.8,232.4z"/>
			<path class="st20" d="M113.8,235h4.1c0.5,0,0.9,0.4,0.9,0.9l0,0c2.7-1.6,9.7-4.2,10.6-3.6c1.7,1.1,1.7,6.4,1.5,8.7
				c-0.3,2.8-1,5.1-2,5.1c-2,0-7.7-1.9-10.1-3.4v0.3c0,0.3-0.2,0.6-0.4,0.8l9.4,10.6l-4.7,0.5l-2,4.1l-7.3-9.2l0,0V235z"/>
		</g>
		
			<linearGradient id="SVGID_13_" gradientUnits="userSpaceOnUse" x1="-1588.1188" y1="5947.2363" x2="-1464.0188" y2="5947.2363" gradientTransform="matrix(0 1 1 0 -5832.9517 1853.5188)">
			<stop  offset="0" style="stop-color:#00BFD9;stop-opacity:0.3"/>
			<stop  offset="0.1429" style="stop-color:#44D0E3;stop-opacity:0.224"/>
			<stop  offset="0.4126" style="stop-color:#C0EFF6;stop-opacity:8.069512e-02"/>
			<stop  offset="0.5315" style="stop-color:#F2FCFD;stop-opacity:1.747246e-02"/>
			<stop  offset="0.9931" style="stop-color:#FFFFFF;stop-opacity:0"/>
		</linearGradient>
		<path class="st21" d="M83.4,384.9V270c0-2.5,2.1-4.6,4.6-4.6h52.5c2.5,0,4.6,2.1,4.6,4.6v114.9c0,2.5-2.1,4.6-4.6,4.6H88
			C85.5,389.5,83.4,387.4,83.4,384.9z"/>
	</g>
	<g>
		<g class="st6">
			<path class="st18" d="M62.8,319.5h37.8c1.5,0,2.8-1.3,2.8-2.8v-22.4c0-1.5-1.3-2.8-2.8-2.8H62.8c-1.5,0-2.8,1.3-2.8,2.8v22.4
				C60,318.2,61.3,319.5,62.8,319.5z"/>
			<path class="st19" d="M70.2,296.3c0.6-0.4,5.4,1.5,7.3,2.6v-0.1c0-0.4,0.3-0.7,0.7-0.7h3.3v10.4l-5.9,6.5l-1.4-2.9l-3.2-0.4
				l7.2-7.3l0,0c-0.3,0-0.6-0.3-0.6-0.6c-1.7,1-5.6,2.3-7,2.3c-0.7,0-1.2-1.7-1.4-3.6C68.9,300.7,68.9,297,70.2,296.3z"/>
			<path class="st20" d="M81.4,298.1h2.9c0.4,0,0.6,0.3,0.7,0.7l0,0c1.9-1.1,6.8-2.9,7.4-2.5c1.2,0.8,1.2,4.5,1,6.1
				c-0.2,1.9-0.7,3.6-1.4,3.6c-1.4,0-5.4-1.3-7.1-2.4v0.2c0,0.2-0.1,0.4-0.3,0.5l6.6,7.5l-3.3,0.4l-1.4,2.8l-5.1-6.4l0,0L81.4,298.1
				L81.4,298.1z"/>
		</g>
		
			<linearGradient id="SVGID_14_" gradientUnits="userSpaceOnUse" x1="-1534.0188" y1="5914.6362" x2="-1446.9258" y2="5914.6362" gradientTransform="matrix(0 1 1 0 -5832.9517 1853.5188)">
			<stop  offset="0" style="stop-color:#00BFD9;stop-opacity:0.3"/>
			<stop  offset="0.1429" style="stop-color:#44D0E3;stop-opacity:0.224"/>
			<stop  offset="0.4126" style="stop-color:#C0EFF6;stop-opacity:8.069512e-02"/>
			<stop  offset="0.5315" style="stop-color:#F2FCFD;stop-opacity:1.747246e-02"/>
			<stop  offset="0.9931" style="stop-color:#FFFFFF;stop-opacity:0"/>
		</linearGradient>
		<path class="st22" d="M60,403.3v-80.6c0-1.8,1.5-3.2,3.2-3.2h36.9c1.8,0,3.2,1.5,3.2,3.2v80.6c0,1.8-1.5,3.2-3.2,3.2H63.2
			C61.5,406.6,60,405.1,60,403.3z"/>
	</g>
	<g>
		<g class="st6">
			<path class="st18" d="M74.4,211.2h22.9c0.9,0,1.7-0.8,1.7-1.7v-13.6c0-0.9-0.8-1.7-1.7-1.7H74.4c-0.9,0-1.7,0.8-1.7,1.7v13.6
				C72.7,210.4,73.4,211.2,74.4,211.2z"/>
			<path class="st19" d="M78.8,197.1c0.4-0.2,3.2,0.9,4.4,1.6v-0.1c0-0.2,0.2-0.4,0.4-0.4h2v6.3l-3.5,3.9l-0.9-1.8l-2-0.2l4.4-4.4
				l0,0c-0.2,0-0.4-0.2-0.4-0.4c-1,0.6-3.4,1.4-4.3,1.4c-0.5,0-0.7-1-0.8-2.2C78,199.9,78.1,197.6,78.8,197.1z"/>
			<path class="st20" d="M85.6,198.3h1.7c0.2,0,0.4,0.2,0.4,0.4l0,0c1.2-0.7,4.1-1.8,4.5-1.5c0.7,0.5,0.7,2.7,0.6,3.7
				c-0.1,1.2-0.4,2.2-0.9,2.2c-0.9,0-3.3-0.8-4.3-1.4v0.1c0,0.1-0.1,0.3-0.2,0.3l4,4.5l-2,0.2l-0.8,1.7l-3.1-3.9l0,0L85.6,198.3
				L85.6,198.3z"/>
		</g>
		
			<linearGradient id="SVGID_15_" gradientUnits="userSpaceOnUse" x1="-1642.3188" y1="5918.8364" x2="-1501.5188" y2="5918.8364" gradientTransform="matrix(0 1 1 0 -5832.9517 1853.5188)">
			<stop  offset="0" style="stop-color:#00BFD9;stop-opacity:0.3"/>
			<stop  offset="0.1429" style="stop-color:#44D0E3;stop-opacity:0.224"/>
			<stop  offset="0.4126" style="stop-color:#C0EFF6;stop-opacity:8.069512e-02"/>
			<stop  offset="0.5315" style="stop-color:#F2FCFD;stop-opacity:1.747246e-02"/>
			<stop  offset="0.9931" style="stop-color:#FFFFFF;stop-opacity:0"/>
		</linearGradient>
		<path class="st23" d="M72.7,350V213.2c0-1.1,0.9-2,2-2H97c1.1,0,2,0.9,2,2V350c0,1.1-0.9,2-2,2H74.7C73.5,352,72.7,351.1,72.7,350
			z"/>
	</g>
	
		<linearGradient id="SVGID_16_" gradientUnits="userSpaceOnUse" x1="-7151.6963" y1="809.33" x2="-7121.564" y2="839.4625" gradientTransform="matrix(-1 0 0 -1 -6981.897 1023.3858)">
		<stop  offset="6.916991e-03" style="stop-color:#FFFFFF;stop-opacity:0"/>
		<stop  offset="9.806256e-02" style="stop-color:#D9F5F9;stop-opacity:5.106452e-02"/>
		<stop  offset="0.3027" style="stop-color:#78DDEB;stop-opacity:0.1657"/>
		<stop  offset="0.5424" style="stop-color:#00BFD9;stop-opacity:0.3"/>
	</linearGradient>
	<path class="st24" d="M130.3,202.4c-1,0-1.8-0.9-1.7-1.9c1.3-9.3,9.3-16.6,18.9-16.6c6.8,0,12.8,3.5,16.1,8.9
		c0.5,0.8,1.5,1,2.3,0.5c1.6-0.9,3.5-1.5,5.5-1.5c5.2,0,9.6,3.6,10.8,8.4c0.3,1.1-0.5,2.1-1.6,2.1h-50.3V202.4z"/>
	<g>
		<g>
			
				<linearGradient id="SVGID_17_" gradientUnits="userSpaceOnUse" x1="82.2844" y1="592.4309" x2="102.6012" y2="592.4309" gradientTransform="matrix(1 0 0 -1 0 1023.3858)">
				<stop  offset="0" style="stop-color:#CCCCCC"/>
				<stop  offset="1" style="stop-color:#E6E6E6"/>
			</linearGradient>
			<path class="st25" d="M92,421.2c0.1,0.1,0.1,0.1,0.2,0.2c0.3,0.4,0.6,0.7,0.9,1.1c0.9,1,1.7,2,2.6,3c1.1,1.2,2.1,2.4,3.2,3.7
				c0.9,1,1.8,2.1,2.7,3.1c0.2,0.2,0.4,0.4,0.5,0.6c0.3,0.4,0.5,0.9,0.4,1.3c-0.2,0.6-0.7,0.8-1.1,1.2c-1.1,0.8-2.1,1.7-3.2,2.5
				c-0.8,0.6-1.6,1.2-2.3,1.8c-0.2,0.2-0.4,0.3-0.6,0.5s-0.4,0.3-0.6,0.5c-0.2,0.1-0.4,0.3-0.6,0.2c-0.3-0.1-0.6-0.3-0.8-0.5
				c-0.2-0.2-0.4-0.5-0.6-0.7c-0.9-1.1-1.9-2.2-2.8-3.3c-1.1-1.3-2.2-2.6-3.3-3.9c-0.9-1.1-1.9-2.2-2.8-3.4
				c-0.3-0.4-0.6-0.7-0.9-1.1c-0.3-0.3-0.7-0.6-0.5-1.1c0.2-0.3,0.5-0.6,0.8-0.8c0.4-0.3,0.8-0.5,1.2-0.8c1.5-0.9,3-1.9,4.4-2.8
				c0.4-0.3,0.8-0.5,1.2-0.8C90.6,421.4,91.3,420.6,92,421.2z"/>
			<path class="st26" d="M327.8,645.3c-1.9,3.3-2.8,7.7,0.5,10.6c0.8,0.7,1.7,1.1,2.7,1s1.8-0.9,2.5-1.7c2.5-3,4.6-8.2,3.4-12.1
				c-0.9-3-4.1-2.9-6.4-1.3c-0.7,0.5-1.2,1.1-1.6,1.8C328.5,644.1,328.2,644.7,327.8,645.3z"/>
			
				<linearGradient id="SVGID_18_" gradientUnits="userSpaceOnUse" x1="640.1606" y1="1547.5491" x2="661.6085" y2="1547.5491" gradientTransform="matrix(0.9472 0.3207 0.3207 -0.9472 -787.5298 1926.2374)">
				<stop  offset="6.179729e-03" style="stop-color:#FCB659"/>
				<stop  offset="0.9097" style="stop-color:#E67E15"/>
				<stop  offset="0.9959" style="stop-color:#E57C13"/>
			</linearGradient>
			<path class="st27" d="M329.2,645c4.8-8.3,9.7,0.6,10.4,6.3c0.4,3,0,6-0.5,9c-1.6,9.7-7.1,17-11.9,25.4c-1.8,3.2-3.8,6.5-6.9,8.5
				c-3.1,2-7.7,2.2-10.1-0.6c-4.8-5.5,1-15.7,3.7-20.9C318.8,663.3,323.9,654.1,329.2,645z"/>
			
				<linearGradient id="SVGID_19_" gradientUnits="userSpaceOnUse" x1="600.6458" y1="1556.3225" x2="639.0356" y2="1556.3225" gradientTransform="matrix(0.9472 0.3207 0.3207 -0.9472 -787.5298 1926.2374)">
				<stop  offset="6.179729e-03" style="stop-color:#FCB659"/>
				<stop  offset="0.9097" style="stop-color:#E67E15"/>
				<stop  offset="0.9959" style="stop-color:#E57C13"/>
			</linearGradient>
			<path class="st28" d="M311,622.4c-3-2.8-7.8-2.6-11.8-1.2c-8.9,3-15.8,11.2-17.4,20.4c-1,5.6-0.1,11.4,1,17.1
				c1,5.1,2.3,10.3,4.7,14.9c2.5,4.6,6.2,8.7,11.1,10.6c2.9,1.1,6.6,1.3,8.7-1c2.5-2.7,1.6-7,0-9.9c-1.8-3.2-2.8-5.3-2.8-9.2
				c0-7.9,3-15.5,5.5-22.8C312.2,635.5,316.6,627.6,311,622.4z"/>
			
				<linearGradient id="SVGID_20_" gradientUnits="userSpaceOnUse" x1="860.668" y1="1801.5315" x2="574.1285" y2="1704.5291" gradientTransform="matrix(0.9472 0.3207 0.3207 -0.9472 -787.5298 1926.2374)">
				<stop  offset="0" style="stop-color:#E57C13"/>
				<stop  offset="0.1354" style="stop-color:#E57C13"/>
				<stop  offset="0.2516" style="stop-color:#E67E15"/>
				<stop  offset="0.9938" style="stop-color:#FCB659"/>
			</linearGradient>
			<path class="st29" d="M551.3,517.7c-7-3.3-14-6.6-21-9.9c-7.9-3.7-15.8-7.4-23.3-12c-12.9-7.9-24.1-17.9-32.9-30.2
				c-7.5-10.3-14.9-20.6-22.6-30.7c-6.4-8.3-13.1-19.2-22-25.1c-2.4-1.6-5.3-2.4-8.1-3.2c-18.5-5-36.7-9.7-55.5-12.7
				c-7.8-1.2-15.1-5.1-23-6.5c-3.7-0.7-7.4-2.1-11.2-2.9c-7.6-1.7-15.4-3-22.9-5.3c-3.7-1.1-4.3,0.5-5.6,4.2s1.8,7.6,5.2,9.5
				c5.2,2.9,11.3,3.6,16.7,6.3c13.1,6.5,26,13.8,39.3,19.5c4.7,2,9.3,4.7,14.2,6c1.6,0.4,15,2.9,10.8,6.2c-1.1,0.8-2.6,0.5-3.9,0.1
				c-9.2-2.7-18.3-5.5-27.5-8.2c-4-1.2-8-2.4-12.1-2.4c-7.4-0.1-12.2,4-11.4,11.8c0.4,3.6,2,7,3.8,10.2
				c10.7,18.2,29.4,29.8,45.7,43.2c8,6.6,15.6,13.8,22.6,21.4c3.4,3.7,6.6,7.6,8.3,12.2c1.8,5,1.6,10.4,1.2,15.7
				c-0.1,1.7-0.2,3.5,0.5,5.1c1.2,2.6,4.2,3.9,6.9,4.7c13,4,26.1,6.6,39.6,7.1c8.6,0.4,17,3.2,24,8.1c3.8,2.7,7.3,5.9,11,8.7
				c10,7.4,17.4,17.6,27,25.3c7.6,6.1,16.5,14.6,25.9,17.6c11,3.5,23.4-0.3,32.2-7.8s14.5-18,18.4-28.9c3.2-8.9,5.5-18.8,2.2-27.6
				c-3-8-15.1-12.1-22.2-15.6C571.7,526.7,561.4,522.4,551.3,517.7z"/>
			
				<linearGradient id="SVGID_21_" gradientUnits="userSpaceOnUse" x1="64.8737" y1="553.9182" x2="434.246" y2="553.9182" gradientTransform="matrix(1 0 0 -1 0 1023.3858)">
				<stop  offset="0" style="stop-color:#CCCCCC"/>
				<stop  offset="1" style="stop-color:#E6E6E6"/>
			</linearGradient>
			<path class="st30" d="M242.5,291.6c1.1,1,2.1,2.1,3.1,3.2c5.5,6.7,11.2,13.3,16.8,19.8c15.9,18.5,31.7,36.9,47.6,55.4
				c19.1,22.2,38.2,44.5,57.4,66.7c16.4,19.1,32.8,38.1,49.2,57.2c3.3,3.8,6.6,7.6,9.8,11.5c5.5,6.4,9.5,15.5,7.1,24.1
				c-2.9,10.4-12.8,14.9-20.6,21.1c-19.4,15.3-38.8,30.5-58.3,45.8c-14.1,11.1-28.2,22.2-42.3,33.2c-3.6,2.8-7.2,5.7-10.8,8.5
				c-3.8,3-7.5,5.8-11.4,8.8c-3.2,2.5-7.4,5.4-11.7,4.4c-5.7-1.3-10.2-5.6-13.9-10s-7.4-8.8-11.1-13.2
				c-16.9-20.1-33.8-40.1-50.7-60.2c-19.9-23.7-39.9-47.3-59.8-71c-17.1-20.3-34.2-40.7-51.4-61c-5.7-6.7-11.4-13.5-17-20.2
				c-4.9-5.9-12.6-11.4-8.5-20.3c2.8-6.2,9.6-10.5,15.1-14.1c7.3-4.7,14.6-9.3,21.8-14c26.9-17.2,53.8-34.4,80.7-51.6
				c7.6-4.8,15.1-9.7,22.6-14.5C216.6,294.6,230,280.4,242.5,291.6z"/>
			
				<linearGradient id="SVGID_22_" gradientUnits="userSpaceOnUse" x1="572.9002" y1="1524.0872" x2="932.6415" y2="1524.0872" gradientTransform="matrix(0.9472 0.3207 0.3207 -0.9472 -787.5298 1926.2374)">
				<stop  offset="6.179729e-03" style="stop-color:#FCB659"/>
				<stop  offset="0.9097" style="stop-color:#E67E15"/>
				<stop  offset="0.9959" style="stop-color:#E57C13"/>
			</linearGradient>
			<path class="st31" d="M534.4,799.6c-5.9-1.3-11.7-2.7-17.8-5.1c-14.4-5.7-28.1-12.4-42.1-19.2c-3.5-1.7-6.9-3.4-10.1-5.6
				c-7.5-5.3-8.2-9.5-15.2-15.4c-8.6-7.3-12.7-18.5-18.5-28.2c-13.2-22.2-32.4-39.3-43.7-62.5c-4.4-9-8.2-18.3-11.6-27.7
				c-1.9-5.4-3.7-11.1-3.4-16.8c0.5-10.8,8.2-20.5,7.9-31.4c0-0.8-0.1-1.6-0.5-2.2c-0.4-0.7-1.2-1.1-1.9-1.3
				c-5.7-2-11.6,2.9-15.9,6.1c-5.1,3.8-9.6,8.6-12.3,14.4c-3.9,8.4-6.3,15.8-5.6,25.4c0.5,7.5,2.3,14.9,4.1,22.2
				c1.6,6.7,4.9,12.3,5.1,19.3c0.2,7.2-0.3,15.1-7.5,18c-11.3,4.7-29.7,1-41-3.3c-13.6-5.3-25.6-15.2-32.6-28.1
				c-4.6-8.4-8.1-18.8-17-22.2c-3.2,4.1-2.9,9.8-2.3,15c0.8,8.1,2.7,16.1,5.1,23.8c2.4,7.8,7.6,15.9,12.6,22.3
				c6.5,8.4,13.1,16.7,19.2,25.4c3.1,4.4,6.1,8.9,8.9,13.6c1.3,2.2,2.9,4.5,3.9,6.9c0.9,2,1.1,4.2,2.5,6c1.7,2.2,4.3,3.7,6.7,5
				c8.1,4.5,15.9,9,23.8,13.8c5.3,3.2,10.6,6.3,15.9,9.5c13.7,8.2,27.4,16.5,40.9,25c5.9,3.7,10.1,7,16.8,8.8
				c12.5,3.3,16,11.3,25,18.7c18.9,15.8,39.3,36.1,60.8,47.9c8.9,4.9,19.3,7.7,29.3,5.9c12.5-2.3,22.7-11.7,30.1-22.1
				c6.4-8.9,11.3-19.1,12.5-30c0.6-5.7,0.2-11.6-2.6-16.6c-3.3-5.9-9.5-9.8-15.9-11.8C543.4,801.6,538.9,800.6,534.4,799.6z"/>
			
				<linearGradient id="SVGID_23_" gradientUnits="userSpaceOnUse" x1="539.0328" y1="1527.7803" x2="704.7429" y2="1527.7803" gradientTransform="matrix(0.9472 0.3207 0.3207 -0.9472 -787.5298 1926.2374)">
				<stop  offset="6.179729e-03" style="stop-color:#FCB659"/>
				<stop  offset="0.7905" style="stop-color:#F39E3A"/>
				<stop  offset="1" style="stop-color:#F39E3A;stop-opacity:0"/>
			</linearGradient>
			<path class="st32" d="M253.5,622c-3-3.2-6.1-6.4-9.8-8.8c-5.7-3.6-19.8-5.7-18.3,5.3c0.4,2.9,2.1,5.4,3.7,7.7
				c10.7,15.1,23.1,28.9,35.5,42.6c6.4,7.1,12.9,14.1,19.1,21.3c2.4,2.7,5.4,5.5,7.3,8.6c5.4,8.7,7,19.6,13.2,27.9
				c2,2.7,4.6,4.8,7.4,6.6c8.5,5.5,18.4,8.2,28.2,10.5c3,0.7,6.3,1.4,9.2,0.4c1.8-0.6,3.3-1.8,4.7-3c5.6-5.1,9.2-12.3,9.9-19.8
				c0.3-2.8,0.2-5.6-0.9-8.2c-2.4-5.8-9-8.6-14.9-10.8c-4.4-1.6-9.2-2.8-12.9-5.8c-3.7-3.1-7.8-6-11.8-9c-3.2-2.8-6-6-9.3-8.8
				c-8.5-7.4-15.6-16.1-24.2-23.4c-6.2-5.3-13.2-9.6-19.1-15.2C264.9,634.3,259.2,628.1,253.5,622z"/>
			<path class="st4" d="M233.6,310.1L96.1,399.3c-5.1,3.3-6.2,10.4-2.3,15.1l165.3,199c3.5,4.2,9.7,4.9,14.1,1.6l132-99.9
				c4.7-3.5,5.4-10.3,1.6-14.8L247,312.1C243.6,308.1,237.9,307.3,233.6,310.1z"/>
			<g>
				
					<linearGradient id="SVGID_24_" gradientUnits="userSpaceOnUse" x1="699.04" y1="1806.3341" x2="585.912" y2="1768.0369" gradientTransform="matrix(0.9472 0.3207 0.3207 -0.9472 -787.5298 1926.2374)">
					<stop  offset="4.133598e-03" style="stop-color:#E67F17;stop-opacity:0"/>
					<stop  offset="0.3708" style="stop-color:#F39E3A"/>
					<stop  offset="0.9959" style="stop-color:#FFC88D"/>
				</linearGradient>
				<path class="st33" d="M451.4,440.7c-6.6-11.7-18.2-18.2-31.2-20.7c-13.1-2.5-26.7,0.3-39.9-1.8c-6.4-1-12.6-3.2-17.5-7.5
					c-6.1-5.4-10.7-11-19.3-12c-7.7-0.8-10.1,7.5-8.7,14c4.8,21.7,21.9,30.4,41.9,35.4c7.4,1.9,12.5,7.7,17.2,13.3
					c5,5.9,10.3,12,17.4,15.3c5.3,2.5,11.1,3.9,16.9,3.5c2.4-0.2,4.8-0.7,7-1.6c2.2-1,4.1-2.4,5.9-3.9c4.8-4.2,8.4-9.5,10.6-15.5
					c2.3-6.5,3.4-11.5,0-17.9C451.6,441.1,451.5,440.9,451.4,440.7z"/>
				<g>
					<path class="st34" d="M354.6,414.9c2.1-0.5,4.4-1.5,5-4c0.3-1.2,0-2.5-0.4-3.6c-1.4-3.6-10.7-10.6-15-11
						c-2.5-0.3-3.7,0.7-4.8,2.3c-1.6,2.2,0.6,7.8,2,9.9C344.2,412.8,349.6,416.1,354.6,414.9z"/>
					<path class="st35" d="M351.5,412.8c-0.5,0.7-0.8,1.4-1,2.2c1.4,0.3,2.8,0.3,4.2,0c2.1-0.5,4.4-1.5,5-4c0.2-1.2,0.1-2.4-0.4-3.6
						c-0.6,0.2-1.1,0.5-1.6,0.7C355.3,409.2,353,410.6,351.5,412.8z"/>
				</g>
			</g>
			<g class="st6">
				<path class="st36" d="M238.4,623.3c-0.3,2-1.1,4.4-3.1,5c-1,0.3-2.1,0.2-3-0.2c-1.5-0.5-2.6-1.6-3.7-2.8c-2-2.4-4.1-5.6-4.3-9
					c-0.5-5.5,4.4-8,8.3-5.4C236.3,613.3,239.2,618.3,238.4,623.3z"/>
			</g>
			<path class="st37" d="M238.4,623.6c-3.1-1.2-6.4,0.5-7,4.1c0.3,0.2,0.6,0.3,0.9,0.4c1,0.4,2,0.5,3,0.2
				C237.2,627.6,238,625.5,238.4,623.6z"/>
			<path class="st38" d="M370.8,606.4c3.5,0.7,5.3-2.2,6.7-5.1c1.7-3.7,4.6-9.4,4.1-13.5c-0.3-3.6-4.7-5.1-7.7-3.6
				c-1.3,0.7-2.4,1.7-3.3,2.8c-3.1,3.6-9,13-4.4,17.3c1.1,1.1,2.6,1.6,4.1,2C370.5,606.3,370.6,606.4,370.8,606.4z"/>
			<path class="st39" d="M366,600.1c-0.5,0.1-1,0.2-1.5,0.4c0,1.5,0.5,2.8,1.7,3.9c1.1,1.1,2.6,1.6,4.1,2c0.2,0,0.3,0.1,0.4,0.1
				c1.7,0.3,3-0.2,4-1.1c-0.1-0.4-0.2-0.8-0.4-1.2C373.1,601,369.3,599.5,366,600.1z"/>
			
				<linearGradient id="SVGID_25_" gradientUnits="userSpaceOnUse" x1="-7453.6758" y1="638.1699" x2="-7283.3701" y2="638.1699" gradientTransform="matrix(-0.6064 -0.7952 -0.7952 0.6064 -3789.3667 -5882.9409)">
				<stop  offset="8.267196e-04" style="stop-color:#00A5EF;stop-opacity:0.3"/>
				<stop  offset="0.445" style="stop-color:#78CFF7;stop-opacity:0.1657"/>
				<stop  offset="0.8242" style="stop-color:#D9F2FD;stop-opacity:5.106452e-02"/>
				<stop  offset="0.9931" style="stop-color:#FFFFFF;stop-opacity:0"/>
			</linearGradient>
			<path class="st40" d="M158.7,276.3l100.9,121.1c1.6,2,1.2,4.8-0.9,6.3l-67.9,47.4c-2.2,1.5-5.3,1.1-6.9-0.8l-101-121.1
				c-1.6-2-1.2-4.8,0.9-6.3l67.9-47.4C153.9,274,157.1,274.3,158.7,276.3z"/>
			<path class="st41" d="M276.4,581.5C276.4,581.5,276.5,581.5,276.4,581.5C276.4,581.5,276.4,581.5,276.4,581.5 M276.2,581.6
				C276.2,581.6,276.3,581.5,276.2,581.6C276.3,581.5,276.2,581.6,276.2,581.6 M277.4,580.8c-0.2,0.1-0.4,0.3-0.6,0.4
				c-0.1,0.1-0.2,0.1-0.3,0.2c0.1-0.1,0.2-0.1,0.3-0.2C277,581.1,277.2,581,277.4,580.8 M276.1,581.6L276.1,581.6L276.1,581.6"/>
			<g>
				<g class="st42">
					<g>
						<defs>
							<polygon id="SVGID_26_" points="298.2,564.4 283.7,544.6 340,502.9 354.6,522.7 							"/>
						</defs>
						<clipPath id="SVGID_27_">
							<use xlink:href="#SVGID_26_"  style="overflow:visible;"/>
						</clipPath>
						<g class="st43">
							<path class="st44" d="M328.2,521.8l-1,0.8l4.4,6l0.8-0.6c1.9-1.4,2.1-3.1,0.6-5.1S329.9,520.5,328.2,521.8 M313.3,544.6
								l-6.7-9.2l5.3-3.9l1.2,1.6l-3.3,2.5l1.5,2l3.1-2.3l1.2,1.6l-3.1,2.3l1.7,2.4l3.3-2.5l1.2,1.6L313.3,544.6 M325.1,532.2
								L325.1,532.2c-0.9-1.2-1.5-2-1.9-2.5l-3.2-4.3l1.7-1.3l6.7,9.2l-2.5,1.8l-9.1-4h-0.1c1,1.2,1.7,2,2,2.5l3.2,4.3l-1.7,1.3
								l-6.7-9.2l2.4-1.8L325.1,532.2 M330.8,531.6l-6.7-9.2l2.9-2.1c1.5-1.1,2.9-1.6,4.3-1.4c1.4,0.2,2.6,1,3.7,2.4
								c1.1,1.5,1.5,3,1.3,4.4c-0.3,1.4-1.2,2.8-2.8,4L330.8,531.6 M307.3,546.7c0.4-0.3,0.7-0.6,0.8-1s0-0.7-0.2-1
								c-0.1-0.2-0.3-0.3-0.5-0.4c-0.2-0.1-0.4-0.1-0.7-0.1s-0.8,0.1-1.6,0.3c-0.8,0.1-1.4,0.2-1.8,0.2c-0.5,0-0.9-0.2-1.3-0.4
								c-0.4-0.2-0.8-0.5-1.1-0.9c-0.6-0.8-0.8-1.6-0.6-2.5s0.8-1.7,1.8-2.4c0.5-0.4,1-0.6,1.5-0.8s1.1-0.4,1.7-0.5l0.5,2
								c-0.6,0.2-1.1,0.3-1.5,0.5s-0.7,0.3-1,0.6c-0.4,0.3-0.6,0.6-0.7,0.9c-0.1,0.3,0,0.6,0.2,0.9c0.1,0.2,0.3,0.3,0.5,0.4
								c0.2,0.1,0.4,0.1,0.6,0.1c0.3,0,0.8-0.1,1.7-0.3c1.2-0.2,2-0.2,2.7-0.1c0.6,0.2,1.1,0.6,1.6,1.2c0.6,0.8,0.8,1.7,0.6,2.6
								c-0.2,0.9-0.9,1.8-2,2.5c-1,0.7-2,1.2-3,1.4l-1.3-1.8c0.8-0.2,1.5-0.4,2-0.6C306.5,547.2,307,547,307.3,546.7 M330.3,510.1
								l-36.9,27.4c-5.3,4-6.5,11.6-2.5,17l0.2,0.3c3.9,5.4,11.5,6.5,16.9,2.6l36.9-27.4c5.3-4,6.5-11.6,2.5-16.9l-0.2-0.3
								C343.2,507.3,335.6,506.1,330.3,510.1"/>
							<path class="st4" d="M302,538.6c-1,0.7-1.5,1.5-1.8,2.4c-0.2,0.9,0,1.7,0.6,2.5c0.3,0.4,0.7,0.7,1.1,0.9
								c0.4,0.2,0.8,0.3,1.3,0.4c0.5,0,1.1,0,1.8-0.2c0.8-0.2,1.4-0.2,1.6-0.3c0.3,0,0.5,0,0.7,0.1s0.4,0.2,0.5,0.4
								c0.2,0.3,0.3,0.6,0.2,1s-0.4,0.7-0.8,1c-0.4,0.3-0.8,0.5-1.3,0.7s-1.2,0.4-2,0.6l1.3,1.8c1-0.2,2-0.6,3-1.4
								c1.1-0.8,1.7-1.6,2-2.5c0.2-0.9,0.1-1.8-0.6-2.6c-0.4-0.6-1-1-1.6-1.2s-1.5-0.2-2.7,0.1c-0.9,0.2-1.4,0.3-1.7,0.3
								s-0.5,0-0.6-0.1c-0.2-0.1-0.3-0.2-0.5-0.4c-0.2-0.3-0.3-0.6-0.2-0.9c0.1-0.3,0.3-0.6,0.7-0.9c0.3-0.2,0.6-0.4,1-0.6
								c0.4-0.2,0.9-0.3,1.5-0.5l-0.5-2c-0.6,0.1-1.2,0.3-1.7,0.5C303,537.9,302.5,538.2,302,538.6"/>
							<polyline class="st4" points="311.8,531.5 306.5,535.4 313.3,544.6 318.5,540.7 317.3,539.1 314,541.6 312.3,539.2 
								315.4,536.9 314.2,535.3 311.1,537.6 309.6,535.6 312.9,533.1 311.8,531.5 							"/>
							<path class="st4" d="M321.8,524.1l-1.7,1.3l3.2,4.3c0.4,0.5,1,1.3,2,2.5l0,0l-9-3.9l-2.4,1.8l6.7,9.2l1.7-1.3l-3.2-4.3
								c-0.4-0.5-1.1-1.4-2-2.5h0.1l9.1,4l2.5-1.8L321.8,524.1"/>
							<path class="st4" d="M331.6,528.5l-4.4-6l1-0.8c1.7-1.3,3.3-0.9,4.8,1c1.5,2,1.3,3.7-0.6,5.1L331.6,528.5 M326.9,520.3
								l-2.9,2.1l6.7,9.2l2.6-1.9c1.6-1.2,2.6-2.5,2.8-4c0.3-1.4-0.2-2.9-1.3-4.4c-1-1.4-2.3-2.2-3.7-2.4
								C329.9,518.7,328.4,519.2,326.9,520.3"/>
						</g>
					</g>
				</g>
			</g>
			<circle class="st45" cx="159.6" cy="345.1" r="3.8"/>
		</g>
		<g>
			
				<rect x="498.8" y="579" transform="matrix(0.5469 -0.8372 0.8372 0.5469 -245.7634 759.451)" class="st4" width="159.8" height="55.6"/>
			
				<rect x="466.7" y="575.2" transform="matrix(0.5469 -0.8372 0.8372 0.5469 -242.6781 723.0051)" class="st46" width="159.8" height="21.1"/>
			
				<rect x="449" y="563.6" transform="matrix(0.5469 -0.8372 0.8372 0.5469 -241.0611 702.9553)" class="st47" width="159.8" height="21.1"/>
			
				<rect x="431.3" y="552.1" transform="matrix(0.5469 -0.8372 0.8372 0.5469 -239.4441 682.9053)" class="st48" width="159.8" height="21.1"/>
			
				<rect x="413.6" y="540.5" transform="matrix(0.5469 -0.8372 0.8372 0.5469 -237.7323 662.8633)" class="st49" width="159.8" height="21.1"/>
		</g>
		<g>
			
				<rect x="449.7" y="804.3" transform="matrix(0.5469 -0.8372 0.8372 0.5469 -462.4753 823.5372)" class="st4" width="159.8" height="69.4"/>
			
				<rect x="410.8" y="802" transform="matrix(0.5469 -0.8372 0.8372 0.5469 -458.8466 779.5161)" class="st46" width="159.8" height="23.4"/>
			
				<rect x="391.2" y="789.1" transform="matrix(0.5469 -0.8372 0.8372 0.5469 -456.998 757.2789)" class="st47" width="159.8" height="23.4"/>
			
				<rect x="371.5" y="776.4" transform="matrix(0.5469 -0.8372 0.8372 0.5469 -455.2445 735.0338)" class="st48" width="159.8" height="23.4"/>
			
				<rect x="351.9" y="763.6" transform="matrix(0.5469 -0.8372 0.8372 0.5469 -453.3959 712.7966)" class="st49" width="159.8" height="23.4"/>
		</g>
	</g>
	
		<linearGradient id="SVGID_28_" gradientUnits="userSpaceOnUse" x1="528.3347" y1="576.1858" x2="528.3347" y2="713.9858" gradientTransform="matrix(1 0 0 -1 0 1023.3858)">
		<stop  offset="6.916991e-03" style="stop-color:#FFFFFF;stop-opacity:0"/>
		<stop  offset="0.176" style="stop-color:#D9F5F9;stop-opacity:5.106452e-02"/>
		<stop  offset="0.5555" style="stop-color:#78DDEB;stop-opacity:0.1657"/>
		<stop  offset="1" style="stop-color:#00BFD9;stop-opacity:0.3"/>
	</linearGradient>
	<path class="st50" d="M564.9,447.2h-73.2c-1.2,0-2.2-1-2.2-2.2V321.1c0-6.4,5.2-11.7,11.7-11.7h54.2c6.4,0,11.7,5.2,11.7,11.7V445
		C567.1,446.2,566.1,447.2,564.9,447.2z"/>
	<path class="st51" d="M195.2,769l0.1,0.1C195.3,769,195.2,769,195.2,769"/>
	<path class="st51" d="M195.3,769.1l0.1,0.1C195.4,769.2,195.4,769.2,195.3,769.1"/>
	<path class="st51" d="M195.5,769.3L195.5,769.3L195.5,769.3"/>
	<g>
		<path class="st52" d="M264,393.7c-0.2,0.1-0.4,0.3-0.6,0.4l-88.2,65.5c-3.6,2.7-4.2,7.9-1.2,11.5l10,12c-0.1-0.1-0.2-0.3-0.3-0.4
			c-2.4-3.6-1.7-8.3,1.7-10.8l94.8-70.4l-4.8-5.8C272.7,392.3,267.7,391.5,264,393.7"/>
		
			<linearGradient id="SVGID_29_" gradientUnits="userSpaceOnUse" x1="-723.8911" y1="-386.6035" x2="-658.683" y2="-321.3955" gradientTransform="matrix(0.943 -0.3329 -0.3329 -0.943 757.0719 -138.151)">
			<stop  offset="0" style="stop-color:#FF5324"/>
			<stop  offset="1" style="stop-color:#F7931E"/>
		</linearGradient>
		<circle class="st53" cx="223" cy="425.8" r="46.1"/>
		<g>
			<path class="st54" d="M210.2,397.3c-0.2,0.1-0.4,0.2-0.5,0.3l-5.8,4.3l38.7,46.3l5.8-4.3c0.8-0.6,0.9-1.7,0.2-2.5l-4.4-5.3
				c0.9-0.8,1.6-1.5,2.3-2.2c1-1.1,1.9-2.3,2.6-3.5c0.8-1.3,1.3-2.7,1.5-4s0.1-2.8-0.3-4.3c-0.4-1.5-1.1-3-2.1-4.5
				c-2.1-3-4.4-4.8-7-5.5c-1.5-0.4-3-0.5-4.6-0.2c0.1-2.7-1.1-5.4-3.5-7.8c-1.3-1.3-2.7-2.2-4.2-2.8c-1.5-0.6-3.1-0.8-4.8-0.6
				c-1,0.1-2,0.3-3,0.6c-0.5,0.1-1,0.3-1.4,0.5c-0.9,0.4-1.9,0.8-2.9,1.4l-4.4-5.3C211.8,397.3,211,397.1,210.2,397.3"/>
			<path class="st55" d="M203.9,401.9l-5.4,4c-0.8,0.6-0.9,1.7-0.2,2.5l4.3,5.1c-0.3,0.2-0.7,0.5-1.1,0.8l-5.5,4.1l0,0
				c-0.4,0.3-0.6,0.7-0.7,1.2s0.1,1,0.4,1.4l3.6,4.3c0.5,0.6,1.4,0.9,2.1,0.7c0.2-0.1,0.4-0.2,0.5-0.3l2.9-2.1
				c0.2-0.2,0.4-0.3,0.6-0.3c0.3-0.1,0.5,0,0.6,0.2l14.8,17.7l0,0h-0.1l-2.9,2.1c-0.7,0.5-0.9,1.5-0.4,2.3l3.2,5.4
				c0.3,0.5,0.8,0.8,1.3,1c0.3,0.1,0.7,0.1,1,0c0.2-0.1,0.4-0.1,0.5-0.3l5.2-3.8c0.3-0.2,0.8-0.6,1.4-1l0,0l4.3,5.2
				c0.5,0.6,1.4,0.9,2.1,0.7c0.2-0.1,0.4-0.1,0.5-0.3l5.4-4L203.9,401.9"/>
		</g>
		<polygon class="st4" points="196.9,473.2 277.1,415.5 324.9,474.7 242,535.5 		"/>
		<polyline class="st51" points="255.6,517.3 250.8,520.2 247.5,515.5 252.3,512.6 255.6,517.3 		"/>
		<path class="st51" d="M252.1,513.8l-1.5,4.5c0.3,0.2,0.7,0.3,1,0.1c0.2-0.1,0.3-0.3,0.3-0.5L252.1,513.8"/>
		<path class="st51" d="M242,480.3l-23.1-6.8l8.3-6.2c0.1-0.1,0.3-0.2,0.4-0.3c1.3-0.8,2.9-1,4.5-0.6l5.2,1.5c2.3,0.7,4,2.7,4.2,5
			L242,480.3 M285.2,397.9c-0.2,0.1-0.4,0.3-0.6,0.4l-4.3,3.2L185.5,472c-3.4,2.5-4.1,7.2-1.7,10.8c0.2,0.2,0.3,0.5,0.5,0.7
			l50.4,60.6c2.6,3.2,7.1,4.1,10.6,2.5c-1.4,0.7-3.1,0.9-4.6,0.7l9.8-29c-0.1-0.1-0.2-0.3-0.2-0.5l-5-66.8c-0.1-1.7,0.6-3.3,1.9-4.3
			l9.5-7.1l-4.6,74.1l9.5-28.1c-1.3-1.1-2.1-2.7-2-4.4l0.4-6.5l4.8,1.4l26.9-79.2c1.6,0.4,3.1,1.2,4.4,2.5
			C293.2,396.5,288.6,395.8,285.2,397.9"/>
		<path class="st51" d="M245.8,546.4L245.8,546.4L245.8,546.4 M245.6,546.5C245.7,546.5,245.7,546.4,245.6,546.5
			C245.7,546.4,245.7,546.5,245.6,546.5 M245.4,546.6C245.4,546.6,245.5,546.6,245.4,546.6C245.5,546.5,245.5,546.5,245.4,546.6"/>
		<path class="st56" d="M345.9,472.1l-99.1,73.6c-3.6,2.7-9.1,2-12.1-1.7l-50.4-60.6c-3-3.6-2.5-8.8,1.2-11.5l99.1-73.6
			c3.6-2.7,9.1-2,12.1,1.7l50.4,60.6C350.1,464.2,349.6,469.4,345.9,472.1"/>
		
			<linearGradient id="SVGID_30_" gradientUnits="userSpaceOnUse" x1="240.8346" y1="551.1991" x2="349.1271" y2="551.1991" gradientTransform="matrix(1 0 0 -1 0 1023.3858)">
			<stop  offset="0" style="stop-color:#43107A"/>
			<stop  offset="0.8702" style="stop-color:#7A2FAF"/>
			<stop  offset="0.994" style="stop-color:#7A2FAF"/>
		</linearGradient>
		<path class="st57" d="M298.8,440.2c-0.1,0.1-0.2,0.2-0.4,0.2c-2,1.5-2.3,4.3-0.7,6.3c1.5,1.8,4.3,2.3,6.3,1.1
			c0.1-0.1,0.2-0.2,0.4-0.2c1.9-1.4,2.3-4,1-5.9c-0.1-0.1-0.2-0.3-0.3-0.4C303.5,439.4,300.8,438.9,298.8,440.2 M291.8,397
			l-51,150.3c1.6,0.2,3.2,0,4.6-0.7l0,0c0,0,0.1,0,0.1-0.1h0.1c0,0,0,0,0.1,0c0,0,0.1,0,0.1-0.1l0,0c0.1-0.1,0.2-0.1,0.3-0.2
			c0.2-0.1,0.4-0.3,0.6-0.4l99.1-73.6c3.4-2.5,4.1-7.2,1.7-10.8c-0.2-0.2-0.3-0.5-0.5-0.7L332.3,443c-0.4,0.6-0.9,1.2-1.6,1.7
			l-23.2,17.2c-0.2,0.1-0.3,0.2-0.5,0.4c-3.1,1.9-7.4,1.1-9.8-1.8l-6.9-8.3l0,0l-6.9-8.3c-2.6-3.1-2.1-7.5,1-9.8l23.3-17.3
			c0.2-0.1,0.3-0.2,0.5-0.3c0.5-0.3,1-0.5,1.6-0.7L296.6,400l-0.1-0.1l-0.1-0.1c0,0,0,0,0-0.1l-0.1-0.1l0,0l-0.1-0.1l0,0
			C294.9,398.2,293.4,397.4,291.8,397"/>
		<path class="st58" d="M308.2,416.5c-0.2,0.1-0.3,0.2-0.5,0.3l-23.3,17.3c-3.1,2.3-3.6,6.7-1,9.8l6.9,8.3l7.5-5.6
			c-1.6-2-1.3-4.8,0.7-6.3c0.1-0.1,0.2-0.2,0.4-0.2c2-1.2,4.7-0.8,6.2,1.1c0.1,0.1,0.2,0.2,0.3,0.4c-0.1-0.1-0.2-0.3-0.3-0.4
			l19.6-14.5l7.1,8.5l-14.3-17c-1.9-2.3-5-3.2-7.7-2.4C309.3,416,308.7,416.2,308.2,416.5"/>
		<path class="st59" d="M324.6,426.7L305,441.2c0.1,0.1,0.2,0.2,0.3,0.4c1.3,1.9,0.9,4.5-1,5.9c-0.1,0.1-0.2,0.2-0.4,0.2
			c-2,1.2-4.7,0.8-6.3-1.1l-7.5,5.6l6.9,8.3c2.4,2.9,6.7,3.6,9.8,1.8c0.2-0.1,0.4-0.2,0.5-0.4l23.3-17.3c2.8-2.1,3.3-5.9,1.4-8.7
			c-0.1-0.2-0.3-0.4-0.4-0.6L324.6,426.7"/>
		<g class="st60">
			<path class="st47" d="M238.4,460.8l-8,6.7l22.3,5.7l-0.6-7.3c-0.2-2.3-1.8-4.3-4.1-4.8l-5-1.2
				C241.4,459.3,239.7,459.7,238.4,460.8"/>
			<path class="st47" d="M273.7,478.5l9.6,2.5c1.7,0.4,3.5,0,4.8-1.1l7.9-6.6l-25.9-6.7l-0.4,6.5
				C269.6,475.7,271.3,477.9,273.7,478.5"/>
			<path class="st4" d="M266.7,431.4l-4.2,79.2c0,0.9-1.4,0.9-1.5,0l-5.3-67.2c-0.1-1.7,0.6-3.3,1.8-4.4L266.7,431.4z"/>
		</g>
	</g>
</g>
</svg>
